<svg id="Calque_1" data-name="Calque 1" xmlns="http://www.w3.org/2000/svg" viewBox="0 0 50 40"><defs><style>.cls-1{fill:#1e1e1c;}</style></defs><title>mic-muted</title><path class="cls-1" d="M18.82,23.37l-1.31,1.31a8,8,0,0,1-.83-3.54.87.87,0,1,1,1.73,0A6.35,6.35,0,0,0,18.82,23.37Z"/><path class="cls-1" d="M25.58,29.13v2.45h2.14a.87.87,0,0,1,0,1.74h-6a.87.87,0,1,1,0-1.74h2.13V29.13a7.88,7.88,0,0,1-3.68-1.38l1.25-1.25A6.29,6.29,0,0,0,31,21.14a.87.87,0,0,1,1.74,0A8.06,8.06,0,0,1,25.58,29.13Z"/><path class="cls-1" d="M27.89,20v1.5a3.18,3.18,0,0,1-4.42,2.93h0l-1.27,1.27a4.78,4.78,0,0,0,2.52.71,4.91,4.91,0,0,0,4.91-4.91V18.29ZM24.71,6.64a4.91,4.91,0,0,0-4.91,4.91v10a4.25,4.25,0,0,0,.07.8l1.67-1.67v-9.1a3.18,3.18,0,1,1,6.35,0V14.3l1.73-1.73v-1A4.91,4.91,0,0,0,24.71,6.64Z"/><path class="cls-1" d="M38.09,8.33l-8.55,8.53-1.65,1.65L21,25.35l-.79.79-1.17,1.15-5.81,5.8a1,1,0,0,1-.68.27.93.93,0,0,1-.67-.27,1,1,0,0,1,0-1.34L36.74,7a1,1,0,0,1,1.35,0A.94.94,0,0,1,38.09,8.33Z"/></svg>