<svg id="Calque_1" data-name="Calque 1" xmlns="http://www.w3.org/2000/svg" viewBox="0 0 50 40"><defs><style>.cls-1{fill:#1e1e1c;}</style></defs><title>mic-on</title><path class="cls-1" d="M33,21.16a.87.87,0,1,0-1.73,0,6.3,6.3,0,1,1-12.6,0,.87.87,0,1,0-1.73,0,8,8,0,0,0,7.16,8V31.6H22a.87.87,0,0,0,0,1.74h6a.87.87,0,0,0,0-1.74H25.87V29.15A8,8,0,0,0,33,21.16Z"/><path class="cls-1" d="M25,26.45a4.91,4.91,0,0,0,4.91-4.91v-10a4.91,4.91,0,0,0-9.82,0v10A4.91,4.91,0,0,0,25,26.45ZM21.82,11.57a3.18,3.18,0,0,1,6.36,0v10a3.18,3.18,0,0,1-6.36,0v-10Z"/></svg>