<?xml version="1.0" encoding="UTF-8" standalone="no"?>
<!-- Generator: Adobe Illustrator 16.0.0, SVG Export Plug-In . SVG Version: 6.00 Build 0)  -->

<svg
   xmlns:dc="http://purl.org/dc/elements/1.1/"
   xmlns:cc="http://creativecommons.org/ns#"
   xmlns:rdf="http://www.w3.org/1999/02/22-rdf-syntax-ns#"
   xmlns:svg="http://www.w3.org/2000/svg"
   xmlns="http://www.w3.org/2000/svg"
   xmlns:sodipodi="http://sodipodi.sourceforge.net/DTD/sodipodi-0.dtd"
   xmlns:inkscape="http://www.inkscape.org/namespaces/inkscape"
   version="1.1"
   id="Capa_1"
   x="0px"
   y="0px"
   width="535.5px"
   height="535.5px"
   viewBox="0 0 535.5 535.5"
   style="enable-background:new 0 0 535.5 535.5;"
   xml:space="preserve"
   sodipodi:docname="send-button.svg"
   inkscape:version="0.92.4 (5da689c313, 2019-01-14)"><metadata
   id="metadata42"><rdf:RDF><cc:Work
       rdf:about=""><dc:format>image/svg+xml</dc:format><dc:type
         rdf:resource="http://purl.org/dc/dcmitype/StillImage" /></cc:Work></rdf:RDF></metadata><defs
   id="defs40" /><sodipodi:namedview
   pagecolor="#ffffff"
   bordercolor="#666666"
   borderopacity="1"
   objecttolerance="10"
   gridtolerance="10"
   guidetolerance="10"
   inkscape:pageopacity="0"
   inkscape:pageshadow="2"
   inkscape:window-width="1920"
   inkscape:window-height="1043"
   id="namedview38"
   showgrid="false"
   inkscape:zoom="0.44070962"
   inkscape:cx="272.28814"
   inkscape:cy="267.75"
   inkscape:window-x="0"
   inkscape:window-y="0"
   inkscape:window-maximized="1"
   inkscape:current-layer="Capa_1" />
<g
   id="g5"
   transform="matrix(0.42372881,0,0,0.49646893,154.29661,134.82044)">
	<g
   id="send">
		<polygon
   points="535.5,267.75 0,38.25 0,216.75 382.5,267.75 0,318.75 0,497.25 "
   id="polygon2" />
	</g>
</g>
<g
   id="g7"
   transform="matrix(0.42372881,0,0,0.49646893,31.893009,233.70948)">
</g>
<g
   id="g9"
   transform="matrix(0.42372881,0,0,0.49646893,31.893009,233.70948)">
</g>
<g
   id="g11"
   transform="matrix(0.42372881,0,0,0.49646893,31.893009,233.70948)">
</g>
<g
   id="g13"
   transform="matrix(0.42372881,0,0,0.49646893,31.893009,233.70948)">
</g>
<g
   id="g15"
   transform="matrix(0.42372881,0,0,0.49646893,31.893009,233.70948)">
</g>
<g
   id="g17"
   transform="matrix(0.42372881,0,0,0.49646893,31.893009,233.70948)">
</g>
<g
   id="g19"
   transform="matrix(0.42372881,0,0,0.49646893,31.893009,233.70948)">
</g>
<g
   id="g21"
   transform="matrix(0.42372881,0,0,0.49646893,31.893009,233.70948)">
</g>
<g
   id="g23"
   transform="matrix(0.42372881,0,0,0.49646893,31.893009,233.70948)">
</g>
<g
   id="g25"
   transform="matrix(0.42372881,0,0,0.49646893,31.893009,233.70948)">
</g>
<g
   id="g27"
   transform="matrix(0.42372881,0,0,0.49646893,31.893009,233.70948)">
</g>
<g
   id="g29"
   transform="matrix(0.42372881,0,0,0.49646893,31.893009,233.70948)">
</g>
<g
   id="g31"
   transform="matrix(0.42372881,0,0,0.49646893,31.893009,233.70948)">
</g>
<g
   id="g33"
   transform="matrix(0.42372881,0,0,0.49646893,31.893009,233.70948)">
</g>
<g
   id="g35"
   transform="matrix(0.42372881,0,0,0.49646893,31.893009,233.70948)">
</g>
</svg>