<?xml version="1.0" encoding="utf-8"?>
<!-- Generator: Adobe Illustrator 24.0.0, SVG Export Plug-In . SVG Version: 6.00 Build 0)  -->
<svg version="1.1" id="Calque_1" xmlns="http://www.w3.org/2000/svg" xmlns:xlink="http://www.w3.org/1999/xlink" x="0px" y="0px"
	 viewBox="0 0 400 400" style="enable-background:new 0 0 400 400;" xml:space="preserve">
<style type="text/css">
	.st0{fill:#B3B3B3;}
	.st1{fill:#DADADA;}
	.st2{fill:#585D65;}
	.st3{fill:#F9F9F9;}
	.st4{fill:#3D4046;}
	.st5{fill:#45494F;}
	.st6{fill:#51555D;}
	.st7{fill:#00DCFF;}
	.st8{fill:#FFFFFF;}
</style>
<g>
	<path class="st0" d="M359.1,200c0,87.9-71.2,159.1-159.1,159.1c-40.3,0-77.1-15-105.2-39.8c-33-29.1-53.9-71.8-53.9-119.3
		c0-87.8,71.2-159.1,159-159.1c34.1,0,65.6,10.7,91.5,29C332.4,98.7,359.1,146.2,359.1,200z"/>
	<path class="st1" d="M345.4,189.2c0,87.9-71.2,159.1-159.1,159.1c-34.1,0-65.6-10.7-91.5-29c-33-29.1-53.9-71.8-53.9-119.3
		c0-87.8,71.2-159.1,159-159.1c34.1,0,65.6,10.7,91.5,29C324.5,99,345.4,141.7,345.4,189.2z"/>
	<path class="st2" d="M323.3,205c0,68.2-55.2,68.2-123.3,68.2c-50.7,0-94.2-3.2-113.2-30.5c-6.6-9.4-10.2-21.7-10.2-37.7
		c0-70.7,55.2-128,123.4-128c47.5,0,88.8,27.9,109.4,68.9C318.3,163.6,323.3,183.7,323.3,205z"/>
	<path class="st3" d="M328.3,214c0,68.2-55.2,68.2-123.4,68.2c-55.7,0-102.8-3.9-118.1-39.4c19,27.3,62.5,30.5,113.2,30.5
		c68.1,0,123.3,0,123.3-68.2c0-21.3-5-41.5-13.9-59.2C321.4,165.6,328.3,189,328.3,214z"/>
	<g>
		<path class="st4" d="M98.4,184.1C98.4,184.1,98.4,184.1,98.4,184.1c7.4-52.3,50.8-92.4,103.3-92.4c23.3,0,44.8,7.9,62.1,21.3
			c0,0,0,0,0,0c19.9,9.2,37,23.7,49.6,41.8C294.6,109,250.9,77,200,77c-68.1,0-123.4,57.3-123.4,128c0,20.1,5.7,34.3,15.8,44.4
			c-1.4-5.8-2.2-12.3-2.2-19.5C90.3,213.8,93.2,198.3,98.4,184.1z"/>
		<path class="st5" d="M213.6,101.9c17.9,0,34.9,4,50.2,11c-17.4-13.4-38.9-21.3-62.1-21.3c-52.4,0-95.8,40.1-103.2,92.4
			C116.2,136,161.1,101.9,213.6,101.9z"/>
		<path class="st6" d="M313.5,154.7c-12.6-18.1-29.7-32.6-49.6-41.8c25.6,19.7,42.2,51.4,42.2,87.1c0,57.7-46.7,57.7-104.4,57.7
			c-57.7,0-104.4-4.9-104.4-57.7c0-5.4,0.4-10.7,1.1-15.9c-5.3,14.2-8.2,29.7-8.2,45.9c0,7.2,0.7,13.7,2.2,19.5
			c21.1,21.1,61.4,23.8,107.5,23.8c68.1,0,123.4,0,123.4-68.2C323.4,187.2,319.8,170.2,313.5,154.7z"/>
		<path class="st2" d="M213.6,101.9c-52.5,0-97.4,34.1-115.2,82.2c0,0,0,0,0,0c-0.7,5.2-1.1,10.5-1.1,15.9
			c0,52.8,46.7,57.7,104.4,57.7c57.6,0,104.4,0,104.4-57.7c0-35.7-16.6-67.3-42.2-87.1c0,0,0,0,0,0
			C248.5,105.8,231.5,101.9,213.6,101.9z"/>
	</g>
	<ellipse class="st7" cx="178.5" cy="157.8" rx="10.8" ry="18"/>
	<circle class="st8" cx="178.5" cy="151.9" r="6.6"/>
	<ellipse class="st7" cx="236.7" cy="157.8" rx="10.8" ry="18"/>
	<circle class="st8" cx="236.7" cy="151.9" r="6.6"/>
	<path class="st7" d="M221.9,208.8l-0.6-0.5c-2.7-2.4-7.2-2.4-9.9,0l-4.7,4.1l-4.6-4c-2.7-2.4-7.2-2.4-9.9,0l-0.5,0.4
		c-2.7,2.4-2.7,6.3,0,8.7l10,8.8c1.4,1.2,3.3,1.8,5.1,1.8c1.8,0,3.7-0.6,5.1-1.8l10-8.8C224.7,215.1,224.7,211.2,221.9,208.8z"/>
</g>
</svg>
