<?xml version="1.0" encoding="utf-8"?>
<!-- Generator: Adobe Illustrator 24.0.0, SVG Export Plug-In . SVG Version: 6.00 Build 0)  -->
<svg version="1.1" id="Calque_1" xmlns="http://www.w3.org/2000/svg" xmlns:xlink="http://www.w3.org/1999/xlink" x="0px" y="0px"
	 viewBox="0 0 400 400" style="enable-background:new 0 0 400 400;" xml:space="preserve">
<style type="text/css">
	.st0{fill:#B4B4B4;}
	.st1{clip-path:url(#SVGID_2_);fill:#DADADA;}
</style>
<path class="st0" d="M359.1,200c0,87.9-71.2,159.1-159.1,159.1c-40.3,0-77.1-15-105.2-39.8c-33-29.1-53.9-71.8-53.9-119.3
	c0-87.8,71.2-159.1,159-159.1c34.1,0,65.6,10.7,91.5,29C332.4,98.7,359.1,146.2,359.1,200z"/>
<g>
	<defs>
		<path id="SVGID_1_" d="M359.1,200c0,87.9-71.2,159.1-159.1,159.1c-40.3,0-77.1-15-105.2-39.8c-33-29.1-53.9-71.8-53.9-119.3
			c0-87.8,71.2-159.1,159-159.1c34.1,0,65.6,10.7,91.5,29C332.4,98.7,359.1,146.2,359.1,200z"/>
	</defs>
	<clipPath id="SVGID_2_">
		<use xlink:href="#SVGID_1_"  style="overflow:visible;"/>
	</clipPath>
	<path class="st1" d="M311.4,281.9c-2.8-8-15.7-12.6-15.7-12.6l-53-22l-9.1-13.7c-0.2-3.1-0.3-6.4-0.2-9.5c2-2.2,3.7-4.7,5-7.3
		c2.5-4.9,3.6-11.4,4.5-18.2c1.2-0.4,2.4-1.1,3.7-2.2c3.1-2.7,4.5-18.3,5.4-24.1c0.6-4.1-1.5-5.5-4.5-5c2.9-16.2-1.4-29-4.1-33.8
		c-0.9-1.6-2-2.5-3.1-2.8c1.1-6.2-2.4-13.6-2.8-11.5c-1.4,7.7-16.9,1.6-30.4-0.7c-20.8-3.5-28.1,0.5-28,10.3
		c-2.5-1.2-6.3-1.5-8.8,0.9c-3.1,3.1-13,15.5-8.4,40.2c-3.3-0.7-5.6,0.6-5,5c0.9,5.8,2.2,21.4,5.4,24.1c2.2,1.9,4.5,2.9,6.2,2.2
		c1.4,5.6,2.9,10.6,4.3,13.8c1.5,3.3,3.5,6.3,5.7,9c0.1,3.4,0.1,6.9-0.1,10.4l-7.8,13L118,267c0,0-8.2,3.1-13.5,9.1
		c-2.2,2.5-10.9,32.3-13.2,82.9h229C318.1,308.5,312.5,285.1,311.4,281.9z"/>
</g>
</svg>
